<svg width="179" height="25" viewBox="0 0 179 25" fill="none" xmlns="http://www.w3.org/2000/svg">
<path fill-rule="evenodd" clip-rule="evenodd" d="M13.9081 23.4954H20.0201V7.14157H13.9081V23.4954ZM13.9081 5.37651H20.0201V0.995819H13.9081V5.37651ZM3.23406 23.4954H9.34611V11.6873H12.4323V7.14041H9.22178C9.12882 5.62982 9.55527 5.40905 11.0368 5.40905H12.5857V0.994657C11.6596 0.963283 10.7649 0.994657 9.83879 0.994657C7.36957 0.994657 5.82645 1.18406 4.49714 2.5401C3.32585 3.73695 3.17131 5.53338 3.23406 7.14041H0.733459V11.6873H3.23406V23.4954ZM21.6132 23.4954H27.7253V14.8618C27.7253 12.245 29.1138 11.7105 30.1631 11.7105C31.9537 11.7105 32.1699 13.034 32.1699 14.9246V23.4954H38.2819V12.2776C38.2819 8.52782 35.6581 6.73139 32.788 6.73139C30.3479 6.73139 28.7118 7.58196 27.5707 9.22036H27.5091V7.14041H21.6132V23.4954ZM49.8263 17.6657C49.7333 19.3668 48.6527 20.2174 47.2652 20.2174C46.1532 20.2174 45.3503 19.4621 45.3503 18.7057C45.3503 17.6018 46.0614 17.2567 47.4186 16.9406C48.2529 16.7524 49.0861 16.5316 49.8263 16.1528V17.6657ZM55.692 13.1281C55.692 9.97682 55.7536 6.73139 48.0984 6.73139C44.301 6.73139 40.0412 7.48668 39.8564 12.0881H45.5362C45.5664 11.3944 45.9371 10.4184 47.8207 10.4184C48.8084 10.4184 49.8263 10.8274 49.8263 11.9301C49.8263 12.9713 48.9931 13.2222 48.16 13.3803C45.0412 13.9787 39.1151 13.7893 39.1151 18.9578C39.1151 22.3927 41.6772 23.9044 44.7646 23.9044C46.74 23.9044 48.6224 23.464 49.9192 21.9511H49.9808C49.9506 22.3926 50.0424 23.055 50.1969 23.4965H55.692V13.1281ZM57.2537 23.4954H63.3657V14.8618C63.3657 12.245 64.7543 11.7105 65.8036 11.7105C67.5942 11.7105 67.8103 13.034 67.8103 14.9246V23.4954H73.9224V12.2776C73.9224 8.52782 71.2986 6.73139 68.4274 6.73139C65.9883 6.73139 64.3523 7.58196 63.21 9.22036H63.1484V7.14041H57.2537V23.4954ZM75.0972 23.4954H91.0861V18.9578H83.123L90.4389 11.9301V7.14041H75.7746V11.6791H82.5966L75.096 18.6743V23.4965L75.0972 23.4954ZM97.0448 13.4744C97.3237 11.7105 98.3729 10.7344 100.194 10.7344C101.767 10.7344 102.879 11.9627 102.879 13.4744H97.0448ZM108.744 16.721C108.744 10.3556 105.997 6.73139 99.6383 6.73139C94.5755 6.73139 91.1802 10.6078 91.1802 15.365C91.1802 20.817 95.038 23.9056 100.162 23.9056C103.804 23.9056 107.169 22.266 108.406 18.737H102.694C102.201 19.5249 101.119 19.9025 100.132 19.9025C98.2184 19.9025 97.1691 18.5802 97.0146 16.721H108.744ZM109.763 23.4954H115.875V14.8618C115.875 12.245 117.265 11.7105 118.313 11.7105C120.103 11.7105 120.319 13.034 120.319 14.9246V23.4954H126.169V12.2776C126.169 8.52782 123.809 6.73139 120.936 6.73139C118.499 6.73139 116.862 7.58196 115.72 9.22036H115.659V7.14041H109.763V23.4954ZM140.22 6.95333H142.204V9.81298H142.266C142.991 7.82133 145.164 6.46994 147.462 6.46994C152.027 6.46994 153.412 8.9136 153.412 12.8667V23.5372H151.429V13.1886C151.429 10.3277 150.516 8.17341 147.304 8.17341C144.155 8.17341 142.266 10.6171 142.203 13.8637V23.5372H140.22V6.95333ZM167.927 14.0879C167.833 11.0342 165.975 8.17341 162.764 8.17341C159.52 8.17341 157.726 11.0668 157.411 14.0879H167.927ZM157.411 15.7914C157.443 18.7487 158.953 22.316 162.764 22.316C165.66 22.316 167.236 20.58 167.866 18.0724H169.848C168.999 21.8337 166.857 24.0194 162.764 24.0194C157.601 24.0194 155.428 19.9699 155.428 15.2453C155.428 10.8739 157.601 6.46994 162.764 6.46994C167.99 6.46994 170.069 11.1318 169.911 15.7914H157.411ZM174.822 6.95333H178.129V8.65564H174.824V19.8409C174.824 21.1586 175.011 21.9302 176.427 22.0255C176.995 22.0255 177.562 21.9941 178.129 21.9302V23.665C177.53 23.665 176.963 23.7301 176.366 23.7301C173.721 23.7301 172.808 22.8296 172.839 20.0013V8.65564H170.006V6.95333H172.839V1.96956H174.824V6.95217L174.822 6.95333Z" fill="#093967"/>
<path fill-rule="evenodd" clip-rule="evenodd" d="M133.093 23.6696C135.991 23.6696 138.339 21.2713 138.339 18.314C138.339 15.3556 135.991 12.9573 133.093 12.9573C130.195 12.9573 127.847 15.3556 127.847 18.314C127.847 21.2713 130.195 23.6696 133.093 23.6696Z" fill="#D70413"/>
<path fill-rule="evenodd" clip-rule="evenodd" d="M133.093 17.4879C135.336 17.4879 137.291 18.7231 138.331 18.493C138.333 18.4326 138.339 18.3745 138.339 18.314C138.339 15.3556 135.991 12.9573 133.093 12.9573C130.195 12.9573 127.847 15.3556 127.847 18.314C127.847 18.3745 127.853 18.4326 127.855 18.493C128.894 18.7242 130.849 17.4879 133.093 17.4879Z" fill="#E42522"/>
</svg>
