<svg width="80" height="25" viewBox="0 0 80 25" fill="none" xmlns="http://www.w3.org/2000/svg">
<g clip-path="url(#clip0_80_1508)">
<path fill-rule="evenodd" clip-rule="evenodd" d="M7.59003 24.0005H9.3989V14.4005H7.59003V24.0005ZM14.2208 23.8565H15.8409V17.7995L22.6604 24.0005V14.5445H21.0448V20.498L14.2208 14.4005V23.8565ZM26.3589 21.5315C27.2407 22.214 28.2991 22.6085 29.4338 22.6085C30.539 22.6085 31.3144 22.2305 31.3144 21.3957C31.3144 20.6682 30.8199 20.3832 29.954 20.0645L28.552 19.5807C27.2595 19.1247 26.2766 18.4587 26.2766 16.928C26.2766 15.2907 27.7646 14.4005 29.544 14.4005C30.6342 14.4005 31.6277 14.6727 32.4038 15.155V16.7787C31.5967 16.1862 30.7134 15.7782 29.5787 15.7782C28.6018 15.7782 27.8718 16.1405 27.8718 16.8957C27.8718 17.5782 28.3301 17.8512 29.1371 18.1257L30.6991 18.6702C32.2128 19.199 32.9073 20.0187 32.9073 21.3672C32.9073 23.0637 31.405 24.0005 29.4338 24.0005C28.1383 24.0005 27.0368 23.6405 26.3589 23.186V21.5315ZM37.1275 24.0005H38.9356V14.4005H37.1275V24.0005ZM47.4183 22.5477C49.4566 22.5477 50.546 21.2487 50.546 19.1982C50.546 17.1327 49.4559 15.8382 47.4183 15.8382H45.4025V22.5477H47.4183ZM43.7567 14.4005H47.4786C50.3437 14.4005 52.1963 16.2755 52.1963 19.1982C52.1963 22.1232 50.3437 24.0005 47.4786 24.0005H43.7567V14.4005ZM61.2391 14.4005V15.8382H56.8627V18.1482H60.7877V19.5695H56.8619V22.5477H61.2391V24.0005H55.2109V14.4005H61.2391ZM67.6577 18.7475H69.4523C70.5145 18.7475 71.1132 18.1685 71.1132 17.2782C71.1132 16.388 70.5145 15.8082 69.4523 15.8082H67.6577V18.7475ZM67.6577 20.105V24.0005H66.061V14.4005H69.4825C71.4333 14.4005 72.6955 15.3987 72.6955 17.2782C72.6955 18.8855 71.9949 19.8087 70.5024 20.0457L73.8974 24.0005H72.081L68.7939 20.1057H67.6585L67.6577 20.105ZM6.95814 4.94299C7.66553 4.68574 8.21664 3.91399 8.21664 2.85274C8.21664 1.08424 6.95814 0.167738 4.94468 0.167738H1.5625V10.04H5.25874C7.2722 10.04 8.5307 9.05899 8.5307 7.21024C8.5307 6.16474 7.87012 5.24824 6.95814 4.94299ZM3.15092 4.31599V1.61524H4.92958C6.04691 1.61524 6.64408 2.01724 6.64408 2.94949C6.64408 3.88174 6.04616 4.31599 4.92958 4.31599H3.15092ZM3.15092 5.69899H5.22703C6.32926 5.69899 6.92643 6.24499 6.92643 7.14574C6.92643 8.02999 6.32851 8.59324 5.22779 8.59324H3.15167V5.69824L3.15092 5.69899ZM15.9104 10.2005C18.2228 10.2005 19.7802 8.81749 19.7802 6.11674V0.167738H18.1443V5.92324C18.1443 7.82074 17.3576 8.70574 15.9104 8.70574C14.4631 8.70574 13.6772 7.82074 13.6772 5.92324V0.167738H12.0412V6.10024C12.0412 8.81749 13.6138 10.2005 15.9104 10.2005ZM23.632 9.33199C24.3084 9.81499 25.4099 10.2005 26.6994 10.2005C28.666 10.2005 30.1601 9.20299 30.1601 7.40299C30.1601 5.97199 29.4685 5.10349 27.9579 4.54099L26.4012 3.96199C25.5986 3.67324 25.1427 3.38374 25.1427 2.65999C25.1427 1.85599 25.8659 1.47049 26.8413 1.47049C27.9737 1.47049 28.8548 1.90399 29.6573 2.53174V0.810488C28.8865 0.296738 27.8952 0.00723828 26.8096 0.00723828C25.0324 0.00723828 23.5535 0.955988 23.5535 2.69224C23.5535 4.31599 24.5289 5.02324 25.8183 5.50549L27.2188 6.01999C28.0839 6.35749 28.5716 6.66349 28.5716 7.43524C28.5716 8.31949 27.8008 8.72149 26.6994 8.72149C25.5669 8.72149 24.513 8.30299 23.632 7.57999V9.33199ZM36.0057 0.167738H34.3704V10.0392H36.0057V0.167738ZM40.6728 10.0272H42.2491V3.60499L48.8836 10.1802V0.152738H47.3118V6.46549L40.6728 0.000488281V10.0272ZM59.1064 0.169988V1.64824H54.8591V4.02424H58.6678V5.48599H54.8591V8.54824H59.1064V10.0422H53.2555V0.169988H59.1064ZM62.9151 9.32524C63.5916 9.80824 64.6923 10.1937 65.9825 10.1937C67.9484 10.1937 69.4432 9.19699 69.4432 7.39624C69.4432 5.96524 68.7509 5.09749 67.241 4.53424L65.6835 3.95599C64.881 3.66649 64.425 3.37699 64.425 2.65324C64.425 1.84924 65.1483 1.46374 66.1237 1.46374C67.2561 1.46374 68.1371 1.89799 68.9397 2.52499V0.804488C68.1689 0.289988 67.1776 0.000488281 66.092 0.000488281C64.3148 0.000488281 62.8359 0.949238 62.8359 2.68549C62.8359 4.30924 63.8113 5.01649 65.1007 5.49874L66.5012 6.01324C67.3663 6.35074 67.854 6.65674 67.854 7.42849C67.854 8.31274 67.084 8.71474 65.9818 8.71474C64.8493 8.71474 63.7954 8.29699 62.9151 7.57324V9.32524ZM72.7944 9.32524C73.4709 9.80824 74.5723 10.1937 75.8618 10.1937C77.8285 10.1937 79.3225 9.19699 79.3225 7.39624C79.3225 5.96524 78.6302 5.09749 77.1203 4.53424L75.5628 3.95599C74.7611 3.66649 74.3043 3.37699 74.3043 2.65324C74.3043 1.84924 75.0283 1.46374 76.003 1.46374C77.1354 1.46374 78.0172 1.89799 78.8189 2.52499V0.804488C78.0489 0.289988 77.0576 0.000488281 75.972 0.000488281C74.1941 0.000488281 72.7159 0.949238 72.7159 2.68549C72.7159 4.30924 73.6913 5.01649 74.9808 5.49874L76.3812 6.01324C77.2464 6.35074 77.7341 6.65674 77.7341 7.42849C77.7341 8.31274 76.9633 8.71474 75.8618 8.71474C74.7294 8.71474 73.6755 8.29699 72.7944 7.57324V9.32524Z" fill="#111111"/>
</g>
<defs>
<clipPath id="clip0_80_1508">
<rect width="77.76" height="24" fill="white" transform="translate(1.5625 0.000488281)"/>
</clipPath>
</defs>
</svg>
