<svg width="375" height="344" viewBox="0 0 375 344" fill="none" xmlns="http://www.w3.org/2000/svg">
<path d="M-246 307.207C-246 310.912 -244.497 314.257 -242.067 316.687C-239.636 319.118 -236.288 320.621 -232.587 320.621H-3.48983C-0.860936 320.621 1.27713 322.759 1.27713 325.388C1.27713 328.017 -0.860936 330.138 -3.48983 330.138H-39.1143C-43.4711 330.138 -46.9976 333.678 -46.9976 338.021V338.038C-46.9976 342.395 -43.4711 345.921 -39.1143 345.921H56.5511C60.9079 345.921 64.4344 342.395 64.4344 338.038V338.021C64.4344 333.681 60.9079 330.138 56.5511 330.138H40.6869C38.058 330.138 35.92 328.017 35.92 325.388C35.92 322.759 38.058 320.621 40.6869 320.621L154.939 323.235C157.568 323.235 159.689 325.373 159.689 328.002C159.689 330.631 157.568 332.752 154.939 332.752H117.207C112.85 332.752 109.324 336.292 109.324 340.635V340.652C109.324 345.009 112.85 348.535 117.207 348.535H324.324C328.664 348.535 332.207 345.009 332.207 340.652V340.635C332.207 336.295 328.668 332.752 324.324 332.752H296.563C293.934 332.752 291.796 330.631 291.796 328.002C291.796 325.373 293.934 323.235 296.563 323.235H511.181C518.59 323.235 524.594 317.231 524.594 309.822C524.594 306.117 523.092 302.772 520.661 300.341C518.23 297.911 514.882 296.408 511.181 296.408L-232.587 293.794C-239.996 293.794 -246 299.798 -246 307.207Z" fill="#FFA959"/>
<path d="M-153.327 296.934H86.6551C86.6551 296.934 97.4833 240.759 96.4109 237.232C95.3385 233.702 74.7209 198.142 74.7209 198.142L68.2159 157.101L31.3744 97.4001L26.4965 27.8555L1.03457 0L-29.3355 21.727L-47.7445 114.579L-50.4742 113.278L-83.5135 97.4001L-122.762 186.998H-140.418L-144.482 221.63L-153.327 296.934Z" fill="#FFA552"/>
<path d="M-74.4357 296.773H189.771C189.771 296.773 201.692 279.139 200.512 276.984C199.332 274.826 176.634 253.085 176.634 253.085L169.473 227.993L128.91 191.491L123.541 148.968L95.5111 131.938L62.0751 145.223L41.8104 201.993L38.8016 201.2L2.42747 191.491L-40.7845 246.274H-60.2255L-64.7 267.45L-74.4357 296.773Z" fill="#FF8A1E"/>
</svg>
