<svg width="24" height="24" viewBox="0 0 24 24" fill="none" xmlns="http://www.w3.org/2000/svg">
<rect x="0.35" y="0.35" width="23.3" height="23.3" rx="11.65" fill="white"/>
<path d="M15.7585 8.66882C16.8814 10.4193 17.4429 12.384 17.2387 14.6524C17.2387 14.6524 17.2387 14.6703 17.2217 14.6703C16.4731 15.2597 15.6224 15.7063 14.7206 15.9921C14.7036 16.0099 14.7036 15.9921 14.6866 15.9921C14.4995 15.7063 14.3293 15.4205 14.1762 15.1168C14.1762 15.099 14.1762 15.0811 14.1932 15.0633C14.4654 14.9561 14.7206 14.8311 14.9759 14.6703C14.9929 14.6703 14.9929 14.6346 14.9759 14.6167C14.9248 14.581 14.8738 14.5453 14.8227 14.4917C14.8057 14.4917 14.8057 14.4917 14.7887 14.4917C13.1724 15.2776 11.4029 15.2776 9.76962 14.4917C9.7526 14.4917 9.73559 14.4917 9.73559 14.4917C9.68455 14.5453 9.63351 14.581 9.58246 14.6167C9.54844 14.6346 9.56545 14.6703 9.58246 14.6703C9.82066 14.8311 10.0929 14.9561 10.3651 15.0633C10.3821 15.0811 10.3821 15.099 10.3821 15.1168C10.229 15.4205 10.0589 15.7063 9.8717 15.9921C9.85469 15.9921 9.83767 16.0099 9.83767 15.9921C8.93594 15.7063 8.08524 15.2597 7.33664 14.6703C7.31962 14.6703 7.31962 14.6524 7.31962 14.6524C7.14948 12.6877 7.50677 10.705 8.79983 8.66882C8.79983 8.66882 8.79983 8.66882 8.81684 8.66882C9.46337 8.34731 10.1439 8.13297 10.8415 8.00794C10.8585 7.99008 10.8755 8.00794 10.8755 8.00794C10.9776 8.18655 11.0627 8.38303 11.1307 8.56165C11.8963 8.43662 12.662 8.43662 13.4276 8.56165C13.4957 8.38303 13.5807 8.18655 13.6828 8.00794C13.6828 8.00794 13.6998 7.99008 13.7168 8.00794C14.4144 8.13297 15.095 8.34731 15.7415 8.66882C15.7585 8.66882 15.7585 8.66882 15.7585 8.66882ZM10.6203 13.4557C11.1137 13.4557 11.522 12.9735 11.522 12.4019C11.522 11.8125 11.1307 11.3481 10.6203 11.3481C10.1269 11.3481 9.71858 11.8125 9.71858 12.4019C9.71858 12.9735 10.1269 13.4557 10.6203 13.4557ZM13.938 13.4557C14.4484 13.4557 14.8397 12.9735 14.8397 12.4019C14.8568 11.8125 14.4484 11.3481 13.938 11.3481C13.4446 11.3481 13.0533 11.8125 13.0533 12.4019C13.0533 12.9735 13.4446 13.4557 13.938 13.4557Z" fill="#7A868D"/>
<rect x="0.35" y="0.35" width="23.3" height="23.3" rx="11.65" stroke="#DFE6EB" stroke-width="0.7"/>
</svg>
