<svg width="25" height="24" viewBox="0 0 25 24" fill="none" xmlns="http://www.w3.org/2000/svg">
<rect x="1.07021" y="0.35" width="23.3" height="23.3" rx="11.65" fill="white"/>
<g clip-path="url(#clip0_54_11732)">
<path d="M17.8424 7.94C17.8341 7.90204 17.816 7.86695 17.7897 7.83832C17.7634 7.80969 17.7301 7.78854 17.693 7.77703C17.5579 7.75039 17.4182 7.76038 17.2883 7.80596C17.2883 7.80596 8.27638 11.045 7.76177 11.4037C7.65056 11.4809 7.61359 11.5255 7.59527 11.5786C7.50624 11.8338 7.78331 11.9463 7.78331 11.9463L10.106 12.7032C10.1452 12.71 10.1855 12.7076 10.2236 12.6962C10.752 12.3625 15.5397 9.33917 15.8165 9.2376C15.8598 9.22442 15.892 9.2376 15.8849 9.26974C15.7718 9.65739 11.6372 13.3316 11.6144 13.3541C11.6033 13.3632 11.5946 13.3749 11.589 13.3881C11.5834 13.4013 11.5811 13.4157 11.5823 13.43L11.3663 15.6964C11.3663 15.6964 11.2756 16.4035 11.9815 15.6964C12.482 15.1953 12.9622 14.7806 13.2029 14.5791C14.0017 15.1304 14.8612 15.7401 15.2318 16.0577C15.294 16.1181 15.3677 16.1653 15.4485 16.1966C15.5294 16.2278 15.6157 16.2425 15.7023 16.2396C16.0559 16.2261 16.1523 15.8394 16.1523 15.8394C16.1523 15.8394 17.7942 9.23246 17.8495 8.34692C17.8546 8.26014 17.862 8.20453 17.8627 8.14507C17.8656 8.0761 17.8588 8.00706 17.8424 7.94Z" fill="#7A868D"/>
</g>
<rect x="1.07021" y="0.35" width="23.3" height="23.3" rx="11.65" stroke="#DFE6EB" stroke-width="0.7"/>
<defs>
<clipPath id="clip0_54_11732">
<rect width="10.2857" height="10.2857" fill="white" transform="translate(7.57764 6.85718)"/>
</clipPath>
</defs>
</svg>
