<svg width="24" height="24" viewBox="0 0 24 24" fill="none" xmlns="http://www.w3.org/2000/svg">
<rect width="24" height="24" rx="12" fill="#FF9431"/>
<path d="M18.6826 18.6301C15.69 18.4417 12.9258 16.916 11.1717 14.4562L4.69856 5.37547C7.64879 5.58125 10.3713 7.08639 12.1139 9.50604C12.1139 9.50606 12.1139 9.50607 12.114 9.50609L18.6826 18.6301Z" fill="white" stroke="#FF9431" stroke-width="0.7"/>
<path d="M18.6833 5.37456L12.2103 14.455C10.4563 16.9148 7.6921 18.4404 4.69949 18.6288L11.2681 9.5063C11.2681 9.50629 11.2681 9.50628 11.2681 9.50627C13.0107 7.08671 15.7331 5.58153 18.6833 5.37456Z" fill="white" stroke="#FF9431" stroke-width="0.7"/>
<path d="M18.6808 5.37515L14.1116 11.7843C13.3257 11.9284 12.5168 12.0042 11.6891 12.0042C10.8614 12.0042 10.0525 11.9284 9.26652 11.7843L4.69689 5.37458C5.95608 5.46353 7.17296 5.79165 8.29172 6.32356L8.442 6.00746C8.44343 6.00818 8.44522 6.00889 8.44701 6.00961C8.4488 6.01033 8.45059 6.01104 8.45202 6.01176C8.95575 6.25217 9.44088 6.53266 9.90025 6.85179M18.6808 5.37515L8.2855 6.32052C8.29095 6.32325 8.29569 6.32545 8.29934 6.3271L8.30856 6.33111L8.30858 6.33112M18.6808 5.37515C17.4336 5.46407 16.2274 5.78667 15.1159 6.31103M18.6808 5.37515L15.1159 6.31103M9.90025 6.85179L9.69025 7.13179C9.69009 7.13167 9.69014 7.1317 9.69065 7.1321L9.6929 7.13381L9.69486 7.13528M9.90025 6.85179L9.70056 7.13923C9.69866 7.13791 9.69676 7.1366 9.69486 7.13528M9.90025 6.85179C9.90135 6.85262 9.90251 6.8535 9.90371 6.85441C9.90873 6.85823 9.91451 6.86263 9.92028 6.8661M9.69486 7.13528C9.25529 6.83037 8.79097 6.56182 8.30858 6.33112M9.69486 7.13528L9.7021 7.14071C9.7072 7.14447 9.71545 7.15044 9.72588 7.15725M8.30858 6.33112L8.31592 6.33412C8.31532 6.33388 8.31459 6.33358 8.31383 6.33326L8.30707 6.33031C8.30547 6.32959 8.30351 6.32869 8.30127 6.32762M8.30858 6.33112C8.30614 6.32996 8.30371 6.32879 8.30127 6.32762M8.30127 6.32762C8.29951 6.32679 8.29757 6.32585 8.29549 6.32481L8.29547 6.32486L8.30127 6.32762ZM9.72588 7.15725C9.72382 7.1558 9.72175 7.15436 9.71969 7.15291L9.92028 6.8661M9.72588 7.15725C10.1756 7.47223 10.6005 7.8206 10.993 8.20622L10.9929 8.20631L10.9995 8.21243C11.0094 8.22172 11.0109 8.22343 11.0137 8.22673C11.0172 8.23092 11.023 8.23765 11.0509 8.26559L11.0522 8.26692C11.1809 8.3942 11.3078 8.52659 11.4287 8.66122L11.6882 8.95022L11.9487 8.66213C12.0651 8.53335 12.1846 8.40828 12.3073 8.2855M9.72588 7.15725C9.73029 7.16012 9.73509 7.16315 9.74021 7.16622L9.92028 6.8661M9.92028 6.8661C10.3868 7.19238 10.829 7.55444 11.2383 7.95656C11.2512 7.96863 11.2631 7.98122 11.2749 7.9937C11.2827 8.00194 11.2904 8.01013 11.2984 8.0181C11.349 8.06818 11.3994 8.11908 11.4494 8.17066C11.4427 8.17797 11.4361 8.18529 11.4295 8.19263L11.6891 8.42738L11.9495 8.19354C11.9427 8.18599 11.9359 8.17845 11.9291 8.17092C11.9732 8.12531 12.0177 8.08011 12.0626 8.03527M12.3073 8.2855C12.3061 8.28667 12.3049 8.28785 12.3036 8.28902L12.0626 8.03527M12.3073 8.2855C12.3268 8.26679 12.3443 8.24838 12.3561 8.2359L12.3578 8.23412C12.3725 8.21872 12.3799 8.21097 12.3866 8.20459L12.3867 8.20461L12.3902 8.20113C12.5729 8.02263 12.7629 7.85179 12.9591 7.68727M12.3073 8.2855C12.3082 8.28459 12.3091 8.28367 12.3101 8.28276L12.0626 8.03527M12.0626 8.03527C12.0769 8.02167 12.0905 8.00736 12.1041 7.99305C12.1177 7.97874 12.1313 7.96443 12.1456 7.95084C12.3359 7.7648 12.5334 7.58735 12.7366 7.41705M12.9591 7.68727C12.9583 7.68788 12.9576 7.68848 12.9568 7.68909L12.7366 7.41705M12.9591 7.68727C12.9716 7.67716 12.9847 7.66679 12.9995 7.65511L13.0001 7.65462C13.015 7.6428 13.0318 7.62956 13.0484 7.61611L13.0494 7.61533C13.2278 7.46984 13.4116 7.32985 13.5994 7.19674M12.9591 7.68727C12.9599 7.68662 12.9606 7.68597 12.9614 7.68531L12.7366 7.41705M12.7366 7.41705C12.7516 7.40489 12.767 7.39272 12.7824 7.38056C12.7978 7.3684 12.8132 7.35623 12.8282 7.34407C13.0142 7.19238 13.206 7.04641 13.402 6.9076M13.5994 7.19674C13.5972 7.19817 13.595 7.19961 13.5928 7.20105L13.402 6.9076M13.5994 7.19674C13.6193 7.18351 13.6371 7.17063 13.6499 7.16132C13.6527 7.15933 13.6552 7.15751 13.6575 7.15583C13.6691 7.14739 13.6758 7.1425 13.6827 7.13778L13.6827 7.13779L13.6848 7.13633C14.1236 6.83134 14.5867 6.56449 15.07 6.3332L15.0701 6.33325L15.0755 6.33053L15.0916 6.32275L15.0925 6.32232C15.0985 6.31945 15.107 6.31541 15.1159 6.31103M13.5994 7.19674C13.601 7.19557 13.6027 7.19441 13.6043 7.19325L13.402 6.9076M13.402 6.9076C13.4186 6.89686 13.4346 6.88518 13.4504 6.87364C13.462 6.86518 13.4735 6.8568 13.485 6.84893C13.9401 6.53266 14.4195 6.25647 14.919 6.01748C14.9261 6.01391 14.9336 6.01033 14.9411 6.00675C14.9487 6.00317 14.9562 5.99959 14.9633 5.99602M15.1159 6.31103C15.1149 6.31152 15.1138 6.31201 15.1128 6.31251L14.9633 5.99602M15.1159 6.31103C15.1172 6.31038 15.1185 6.30972 15.1199 6.30906L14.9633 5.99602M15.1159 6.31103L14.9633 5.99602" fill="white" stroke="#FF9431" stroke-width="0.7"/>
</svg>
