<svg width="24" height="24" viewBox="0 0 24 24" fill="none" xmlns="http://www.w3.org/2000/svg">
<rect x="0.35" y="0.35" width="23.3" height="23.3" rx="11.65" fill="white"/>
<rect x="0.35" y="0.35" width="23.3" height="23.3" rx="11.65" stroke="#DFE6EB" stroke-width="0.7"/>
<mask id="path-2-inside-1_2_6773" fill="white">
<path d="M13.4217 11.1928L17.8889 6H16.8303L12.9514 10.5089L9.85331 6H6.28003L10.9649 12.8182L6.28003 18.2637H7.33869L11.4349 13.5022L14.7067 18.2637H18.28L13.4217 11.1928ZM11.9717 12.8783L11.497 12.1993L7.72014 6.79694H9.34618L12.3941 11.1568L12.8688 11.8358L16.8308 17.503H15.2048L11.9717 12.8783Z"/>
</mask>
<path d="M13.4217 11.1928L17.8889 6H16.8303L12.9514 10.5089L9.85331 6H6.28003L10.9649 12.8182L6.28003 18.2637H7.33869L11.4349 13.5022L14.7067 18.2637H18.28L13.4217 11.1928ZM11.9717 12.8783L11.497 12.1993L7.72014 6.79694H9.34618L12.3941 11.1568L12.8688 11.8358L16.8308 17.503H15.2048L11.9717 12.8783Z" fill="#262C31"/>
<path d="M13.4217 11.1928L10.3893 8.5842L8.3805 10.9193L10.1249 13.4581L13.4217 11.1928ZM17.8889 6L20.9213 8.60864L26.6065 2H17.8889V6ZM16.8303 6V2H14.995L13.798 3.39134L16.8303 6ZM12.9514 10.5089L9.65463 12.7741L12.5962 17.0552L15.9837 13.1175L12.9514 10.5089ZM9.85331 6L13.1501 3.73476L11.9581 2H9.85331V6ZM6.28003 6V2H-1.3217L2.98328 8.26526L6.28003 6ZM10.9649 12.8182L13.9972 15.4269L16.0062 13.0918L14.2617 10.5529L10.9649 12.8182ZM6.28003 18.2637L3.24778 15.655L-2.43791 22.2637H6.28003V18.2637ZM7.33869 18.2637V22.2637H9.17405L10.371 20.8723L7.33869 18.2637ZM11.4349 13.5022L14.7317 11.2369L11.7901 6.95593L8.40262 10.8935L11.4349 13.5022ZM14.7067 18.2637L11.41 20.529L12.602 22.2637H14.7067V18.2637ZM18.28 18.2637V22.2637H25.8816L21.5768 15.9985L18.28 18.2637ZM11.9717 12.8783L15.25 10.5864L15.2499 10.5863L11.9717 12.8783ZM11.497 12.1993L8.2187 14.4912L8.21876 14.4913L11.497 12.1993ZM7.72014 6.79694V2.79694H0.0431275L4.44184 9.08883L7.72014 6.79694ZM9.34618 6.79694L12.6245 4.5051L11.4304 2.79694H9.34618V6.79694ZM12.3941 11.1568L9.11582 13.4487L9.11591 13.4488L12.3941 11.1568ZM12.8688 11.8358L16.1471 9.5439L16.1471 9.54381L12.8688 11.8358ZM16.8308 17.503V21.503H24.5078L20.1091 15.2111L16.8308 17.503ZM15.2048 17.503L11.9265 19.7949L13.1206 21.503H15.2048V17.503ZM16.454 13.8015L20.9213 8.60864L14.8566 3.39136L10.3893 8.5842L16.454 13.8015ZM17.8889 2H16.8303V10H17.8889V2ZM13.798 3.39134L9.91909 7.90021L15.9837 13.1175L19.8626 8.60866L13.798 3.39134ZM16.2482 8.24363L13.1501 3.73476L6.55654 8.26524L9.65463 12.7741L16.2482 8.24363ZM9.85331 2H6.28003V10H9.85331V2ZM2.98328 8.26526L7.6682 15.0835L14.2617 10.5529L9.57678 3.73474L2.98328 8.26526ZM7.9327 10.2095L3.24778 15.655L9.31227 20.8724L13.9972 15.4269L7.9327 10.2095ZM6.28003 22.2637H7.33869V14.2637H6.28003V22.2637ZM10.371 20.8723L14.4673 16.1108L8.40262 10.8935L4.30637 15.655L10.371 20.8723ZM8.13821 15.7675L11.41 20.529L18.0035 15.9984L14.7317 11.2369L8.13821 15.7675ZM14.7067 22.2637H18.28V14.2637H14.7067V22.2637ZM21.5768 15.9985L16.7184 8.92762L10.1249 13.4581L14.9832 20.5289L21.5768 15.9985ZM15.2499 10.5863L14.7752 9.90736L8.21876 14.4913L8.69344 15.1703L15.2499 10.5863ZM14.7753 9.90745L10.9984 4.50506L4.44184 9.08883L8.2187 14.4912L14.7753 9.90745ZM7.72014 10.7969H9.34618V2.79694H7.72014V10.7969ZM6.06785 9.08879L9.11582 13.4487L15.6725 8.865L12.6245 4.5051L6.06785 9.08879ZM9.11591 13.4488L9.59059 14.1278L16.1471 9.54381L15.6724 8.86487L9.11591 13.4488ZM9.59053 14.1277L13.5525 19.7949L20.1091 15.2111L16.1471 9.5439L9.59053 14.1277ZM16.8308 13.503H15.2048V21.503H16.8308V13.503ZM18.4831 15.2111L15.25 10.5864L8.69336 15.1701L11.9265 19.7949L18.4831 15.2111Z" fill="#7A868D" mask="url(#path-2-inside-1_2_6773)"/>
</svg>
